<svg xmlns="http://www.w3.org/2000/svg" id="Layer_1" data-name="Layer 1" viewBox="0 0 441 301.07"><defs><style>.cls-3{fill:#172a3d}.cls-4{fill:#197593}.cls-7{fill:#d5e7ed}.cls-8{fill:#a7cbd7}.cls-9{fill:#f2f7f9}.cls-10{fill:#4590a8}.cls-11{fill:#a9dcd5}.cls-12{fill:#89d4c3}.cls-13{fill:none}</style></defs><title>Untitled-4</title><path d="M152.25,147.88l0-.5a111.55,111.55,0,0,0-18.31,2.92,110.6,110.6,0,0,1-18.15,2.9l-0.37,0-0.09.36c-3.55,15.12-5.54,29.95-9.12,46.17l-0.16.72,0.72-.11c8.25-1.29,13.41-2.68,18.56-3.91a110.48,110.48,0,0,1,18.55-2.94l0-.5-0.41.28c3.09,4.53,7.81,9,12.22,13.57s8.52,9.29,10.39,14.21l0.16,0.41,0.43-.11a61.3,61.3,0,0,1,15.06-1.54c3.92,0,7.88.17,11.95,0.17,2.68,0,5.4-.07,8.19-0.32l0.43,0,0-.43c0.89-16,2.2-30.87,4.12-46.2l0.07-.54-0.55,0c-5.06-.17-9.5-0.26-13.86-0.26-5.92,0-11.66.16-18.53,0.5l0,0.5,0.43-.26c-5.25-8.52-14.65-18.08-21.33-25.4l-0.16-.18h-0.24l0,0.5-0.37.34c6.7,7.33,16.07,16.88,21.22,25.25l0.16,0.25h0.3c6.86-.34,12.58-0.5,18.48-0.5,4.34,0,8.78.09,13.83,0.26l0-.5-0.5-.06c-1.92,15.35-3.23,30.23-4.12,46.27l0.5,0,0-.5c-2.75.24-5.45,0.32-8.1,0.32-4,0-8-.17-11.95-0.17a62.27,62.27,0,0,0-15.3,1.57l0.12,0.49,0.47-.18c-2-5.17-6.17-9.94-10.6-14.55s-9.12-9-12.11-13.44l-0.16-.24-0.29,0a111.5,111.5,0,0,0-18.71,3c-5.16,1.23-10.27,2.61-18.48,3.89l0.08,0.49,0.49,0.11c3.59-16.27,5.58-31.1,9.12-46.16l-0.49-.11,0,0.5a111.57,111.57,0,0,0,18.31-2.92,110.63,110.63,0,0,1,18.15-2.9l0-.5-0.37.34,0.37-.34" class="cls-4"/><path d="M143.91,192.56a218.19,218.19,0,0,0,3.77-22.42c1-7.8,1.95-15.07,3-19l-1-.25c-1.08,4.11-2,11.36-3,19.17a217.4,217.4,0,0,1-3.75,22.31l1,0.24" class="cls-4"/><path d="M173.67,173.9c-2.07,12-3.84,29.61-5.9,41.57l1,0.17c2.06-12,3.83-29.61,5.9-41.57l-1-.17" class="cls-4"/><path d="M97,291q-0.84,3.45-1.55,6.93L96,298q0.71-3.47,1.55-6.9L97,291h0Zm2.22-8.22q-0.8,2.72-1.52,5.47l0.55,0.14q0.72-2.74,1.52-5.45l-0.54-.16h0Zm2.46-7.71q-0.88,2.55-1.68,5.13l0.54,0.17q0.8-2.57,1.67-5.11l-0.54-.18h0Zm3.32-8.91q-1.32,3.29-2.52,6.63L103,273q1.19-3.33,2.51-6.61l-0.53-.21h0Zm3.36-7.83q-1.18,2.58-2.28,5.2l0.52,0.22q1.1-2.61,2.27-5.18Zm3.52-7.29q-1.23,2.4-2.38,4.84L110,256.1q1.15-2.43,2.37-4.83Zm4.54-8.36q-1.77,3.07-3.43,6.21l0.5,0.26q1.65-3.13,3.42-6.2l-0.49-.28h0Zm4.42-7.28q-1.53,2.39-3,4.83l0.49,0.29q1.45-2.43,3-4.81Zm4.51-6.72q-1.55,2.21-3,4.46l0.47,0.31q1.48-2.24,3-4.44l-0.46-.33h0ZM131,221q-2.19,2.79-4.27,5.67L127.2,227q2.07-2.87,4.26-5.65L131,221h0Zm5.41-6.57q-1.86,2.15-3.64,4.35l0.44,0.36q1.78-2.2,3.63-4.34l-0.43-.37h0Z" class="cls-3"/><path d="M144.44,194.75l-0.22,1.18,16.2,16.23c-1.48-1.78-3.12-3.54-4.8-5.29-3.94-4.1-8.13-8.09-11.18-12.12m12.26-9.44a53.4,53.4,0,0,1-4.4-6.35l2.43-1.46a51.93,51.93,0,0,0,3.72,5.47c0.76-1.06,1.19-1.76,1.76-2.5a12.35,12.35,0,0,1,1.38-1.5l1.93,2.08a9.49,9.49,0,0,0-1.08,1.16c-0.3.38-.6,0.82-1,1.42-0.3.44-.66,1-1.11,1.57,0.65,0.72,1.23,1.35,1.78,2a15,15,0,0,1,1.62,2.16l-2.43,1.46A12.23,12.23,0,0,0,160,189c-0.4-.46-0.87-1-1.4-1.55-0.5.62-1.07,1.32-1.73,2.1l-2.17-1.83c0.8-.95,1.46-1.76,2-2.46m-4-34.05-8.05,42.16c3,4.18,7.43,8.4,11.65,12.77a63,63,0,0,1,8.6,10.51l2.31,2.31L170,200.21c1.18-9,2.33-18.44,3.6-25.88l-20.84-23.08" class="cls-7"/><path d="M173.59,174.33c-1.27,7.44-2.42,16.93-3.6,25.88l3.76-25.71-0.16-.17" class="cls-8"/><path d="M192,173.2c-2.5,0-5,0-7.5.09l-7.2.62-8.81,46a66.68,66.68,0,0,1,13.14-1.09c3.95,0,7.91.17,11.94,0.17h0c2.52,0,5.07-.07,7.67-0.28,0.88-15.68,2.16-30.27,4-45.29-4.82-.16-9.09-0.24-13.28-0.24m15.3-1.87-10.52.9c2.87,0,5.85.12,9.08,0.23l0.55,0-0.07.54c-1.92,15.33-3.22,30.18-4.12,46.2l0,0.43-0.43,0c-2.79.25-5.52,0.32-8.19,0.32-4.07,0-8-.17-11.95-0.17A64.8,64.8,0,0,0,168.31,221l-0.48,2.5,36.17-.83,3.33-51.33" class="cls-9"/><path d="M196.81,172.24l-12.28,1.05c2.54-.06,5-0.09,7.5-0.09,4.18,0,8.45.08,13.28,0.24-1.87,15-3.15,29.61-4,45.29-2.6.21-5.15,0.28-7.67,0.28h0c-4,0-8-.17-11.94-0.17a66.68,66.68,0,0,0-13.14,1.09l-0.2,1.06a64.8,64.8,0,0,1,13.35-1.15c3.92,0,7.88.17,11.95,0.17,2.68,0,5.4-.07,8.19-0.32l0.43,0,0-.43c0.89-16,2.2-30.87,4.12-46.2l0.07-.54-0.55,0c-3.23-.11-6.21-0.19-9.08-0.23" class="cls-10"/><path d="M156.71,185.3c-0.55.7-1.21,1.51-2,2.46l2.17,1.83c0.66-.78,1.23-1.48,1.73-2.1l-0.56-.63c-0.41-.47-0.85-1-1.32-1.56m4.9-6.33a12.35,12.35,0,0,0-1.38,1.5c-0.57.73-1,1.44-1.76,2.5l0.55,0.68c0.47,0.58.92,1.09,1.33,1.56,0.45-.62.81-1.13,1.11-1.57,0.41-.6.71-1,1-1.42a9.49,9.49,0,0,1,1.08-1.16L161.61,179" class="cls-11"/><path d="M160.35,185.2c-0.47.64-1,1.39-1.76,2.29,0.52,0.58,1,1.08,1.4,1.55a12.23,12.23,0,0,1,1.32,1.76l2.43-1.46a15,15,0,0,0-1.62-2.16c-0.54-.62-1.13-1.25-1.78-2m-5.6-7.7L152.31,179a53.4,53.4,0,0,0,4.4,6.35c0.74-.94,1.29-1.69,1.74-2.31l0,0a51.93,51.93,0,0,1-3.72-5.47" class="cls-11"/><path d="M158.46,183l0,0c-0.44.62-1,1.37-1.74,2.31,0.47,0.58.91,1.09,1.32,1.56l0.56,0.63c0.72-.9,1.29-1.65,1.76-2.29-0.42-.47-0.86-1-1.33-1.56l-0.55-.68" class="cls-12"/><rect width="441" height="301.07" class="cls-13"/></svg>